<?xml version="1.0" encoding="UTF-8" standalone="no"?>
<!DOCTYPE svg PUBLIC "-//W3C//DTD SVG 1.1//EN"
 "http://www.w3.org/Graphics/SVG/1.1/DTD/svg11.dtd">
<!-- Generated by graphviz version 8.0.5 (20230506.1012)
 -->
<!-- Pages: 1 -->
<svg width="168pt" height="352pt"
 viewBox="0.00 0.00 167.87 351.75" xmlns="http://www.w3.org/2000/svg" xmlns:xlink="http://www.w3.org/1999/xlink">
<g id="graph0" class="graph" transform="scale(1 1) rotate(0) translate(4 347.75)">
<polygon fill="white" stroke="none" points="-4,4 -4,-347.75 163.87,-347.75 163.87,4 -4,4"/>
<g id="clust1" class="cluster">
<title>cluster_0</title>
<polygon fill="lightgrey" stroke="lightgrey" points="8,-8 8,-155.75 150,-155.75 150,-8 8,-8"/>
<text text-anchor="middle" x="79" y="-138.45" font-family="Helvetica,Arial,sans-serif" font-size="14.00">process #1</text>
</g>
<!-- 4 -->
<g id="node1" class="node">
<title>4</title>
<ellipse fill="white" stroke="white" cx="115" cy="-106" rx="27" ry="18"/>
<text text-anchor="middle" x="115" y="-100.58" font-family="Helvetica,Arial,sans-serif" font-size="14.00">4</text>
</g>
<!-- 6 -->
<g id="node2" class="node">
<title>6</title>
<ellipse fill="white" stroke="white" cx="115" cy="-34" rx="27" ry="18"/>
<text text-anchor="middle" x="115" y="-28.57" font-family="Helvetica,Arial,sans-serif" font-size="14.00">6</text>
</g>
<!-- 4&#45;&#45;6 -->
<g id="edge1" class="edge">
<title>4&#45;&#45;6</title>
<path fill="none" stroke="black" d="M115,-87.7C115,-76.85 115,-62.92 115,-52.1"/>
</g>
<!-- 5 -->
<g id="node3" class="node">
<title>5</title>
<ellipse fill="white" stroke="white" cx="43" cy="-106" rx="27" ry="18"/>
<text text-anchor="middle" x="43" y="-100.58" font-family="Helvetica,Arial,sans-serif" font-size="14.00">5</text>
</g>
<!-- 1 -->
<g id="node4" class="node">
<title>1</title>
<ellipse fill="none" stroke="black" cx="115" cy="-325.75" rx="27" ry="18"/>
<text text-anchor="middle" x="115" y="-320.32" font-family="Helvetica,Arial,sans-serif" font-size="14.00">1</text>
</g>
<!-- 2 -->
<g id="node5" class="node">
<title>2</title>
<ellipse fill="none" stroke="black" cx="88" cy="-253.75" rx="27" ry="18"/>
<text text-anchor="middle" x="88" y="-248.32" font-family="Helvetica,Arial,sans-serif" font-size="14.00">2</text>
</g>
<!-- 1&#45;&#45;2 -->
<g id="edge2" class="edge">
<title>1&#45;&#45;2</title>
<path fill="none" stroke="black" d="M108.46,-307.8C104.22,-296.8 98.71,-282.51 94.48,-271.54"/>
</g>
<!-- 3 -->
<g id="node6" class="node">
<title>3</title>
<ellipse fill="none" stroke="black" cx="115" cy="-181.75" rx="27" ry="18"/>
<text text-anchor="middle" x="115" y="-176.32" font-family="Helvetica,Arial,sans-serif" font-size="14.00">3</text>
</g>
<!-- 1&#45;&#45;3 -->
<g id="edge3" class="edge">
<title>1&#45;&#45;3</title>
<path fill="none" stroke="black" d="M118.65,-307.66C120.68,-297.32 122.98,-283.84 124,-271.75 125.34,-255.81 125.34,-251.69 124,-235.75 122.98,-223.66 120.68,-210.18 118.65,-199.84"/>
</g>
<!-- 2&#45;&#45;3 -->
<g id="edge4" class="edge">
<title>2&#45;&#45;3</title>
<path fill="none" stroke="black" d="M94.54,-235.8C98.78,-224.8 104.29,-210.51 108.52,-199.54"/>
</g>
<!-- 3&#45;&#45;4 -->
<g id="edge5" class="edge">
<title>3&#45;&#45;4</title>
<path fill="none" stroke="black" d="M115,-163.27C115,-151.52 115,-136.08 115,-124.35"/>
</g>
<!-- 3&#45;&#45;6 -->
<g id="edge7" class="edge">
<title>3&#45;&#45;6</title>
<path fill="none" stroke="black" d="M136.78,-170.5C142.43,-166.71 147.83,-161.82 151,-155.75 164.96,-129.07 159.85,-116.78 151,-88 146.62,-73.75 136.96,-59.9 128.75,-49.93"/>
</g>
<!-- 3&#45;&#45;5 -->
<g id="edge6" class="edge">
<title>3&#45;&#45;5</title>
<path fill="none" stroke="black" d="M95.42,-168.87C89.82,-165.03 83.91,-160.52 79,-155.75 68.89,-145.93 59.5,-133.03 52.84,-122.97"/>
</g>
</g>
</svg>
